PathFileType	4	(X/Y/Z)	C:\Users\chris\Documents\GitHub\baseballds\vids\pitch5_Sports2D\pitch5_Sports2D_m_person01.trc
DataRate	CameraRate	NumFrames	NumMarkers	Units	OrigDataRate	OrigDataStartFrame	OrigNumFrames
30	30	11	22	m	30	37	149
Frame#	Time	Hip			RHip			RKnee			RAnkle			RBigToe			RSmallToe			RHeel			LHip			LKnee			LAnkle			LBigToe			LSmallToe			LHeel			Neck			Head			Nose			RShoulder			RElbow			RWrist			LShoulder			LElbow			LWrist		
		X1	Y1	Z1	X2	Y2	Z2	X3	Y3	Z3	X4	Y4	Z4	X5	Y5	Z5	X6	Y6	Z6	X7	Y7	Z7	X8	Y8	Z8	X9	Y9	Z9	X10	Y10	Z10	X11	Y11	Z11	X12	Y12	Z12	X13	Y13	Z13	X14	Y14	Z14	X15	Y15	Z15	X16	Y16	Z16	X17	Y17	Z17	X18	Y18	Z18	X19	Y19	Z19	X20	Y20	Z20	X21	Y21	Z21	X22	Y22	Z22
37	1.2333333333333334	0.8370958674386334	0.9628672169156427	0.0	0.7874660486324068	0.9511741681567192	0.0	0.7683609703672499	0.7353873401467902	0.0	0.7593555301939342	0.5337472624149668	0.0	0.8039448297808811	0.4695027824843633	0.0	0.7654546512544773	0.4637288967682592	0.0	0.7473120705029689	0.5037469048891332	0.0	0.8896215445815222	0.9605183201925891	0.0	0.9078537851638745	0.7539630398452121	0.0	0.921031113873456	0.5758586722479919	0.0	1.0291882295847679	0.5362044699425306	0.0	1.0202210408804107	0.5469145002325579	0.0	0.9059372024589971	0.5365518553646723	0.0	0.810419703175287	1.2997497180206565	0.0	0.8655463901727892	1.4340387865784872	0.0	0.8979160103835173	1.3465485968491704	0.0	0.7150296493613075	1.259731296765828	0.0	0.6763306685213061	1.1022479312632452	0.0	0.7181250393139565	0.9818008572963909	0.0	0.8695871881530878	1.2608680355226802	0.0	0.8733778067932346	1.1282607870138472	0.0	0.7998919057833296	1.0282519179267653	0.0
38	1.2666666666666666	0.837990397297259	0.9622007756159275	0.0	0.7887589316386638	0.9505074295078354	0.0	0.7692794249367129	0.7357490998781455	0.0	0.7606344102507484	0.5323371583203401	0.0	0.8055305265217728	0.46896239908861836	0.0	0.7679165969322667	0.46323333342876916	0.0	0.7483611806202441	0.5022029515219832	0.0	0.8898499718931728	0.9604037556471111	0.0	0.908402002103502	0.7536718627266858	0.0	0.9223321281824289	0.5746860389118079	0.0	1.028726338843198	0.5358613498079013	0.0	1.0193801177440527	0.54682317819939	0.0	0.9070177553818225	0.5356079463471118	0.0	0.8108376597840797	1.2981694700192243	0.0	0.8680519262843455	1.4332901598661951	0.0	0.897423806138128	1.3433722851352266	0.0	0.7160380727151283	1.2583831124823683	0.0	0.6768808445492004	1.1003274262065348	0.0	0.7193758374221245	0.9812632733933597	0.0	0.8691904544412352	1.2611533402776534	0.0	0.8746009517514995	1.1305852736169135	0.0	0.7993542299074682	1.0289645097954354	0.0
39	1.3	0.839532284000257	0.9624313653761504	0.0	0.7902741736864473	0.9516175836813937	0.0	0.7698360291900482	0.7358876797942621	0.0	0.7611853109075276	0.5324965229349318	0.0	0.8056313599266713	0.46917202708245304	0.0	0.768408086101563	0.4634983805385131	0.0	0.7490822845151989	0.502489129446463	0.0	0.8900889254593909	0.9607977039485494	0.0	0.9094778210187583	0.7535567718555768	0.0	0.9238332680233943	0.5727156936692415	0.0	1.0289132729835888	0.5351821476813181	0.0	1.0199000572792085	0.5456203137333595	0.0	0.9076829707045998	0.5335170375445681	0.0	0.811133538467905	1.2968418324439628	0.0	0.8699759092344249	1.4330296427692804	0.0	0.8968512361221627	1.3406196785741755	0.0	0.7172690760389299	1.25678503664986	0.0	0.6773484278410671	1.0999659179728705	0.0	0.7196597562476853	0.9825476046440853	0.0	0.8687971319561107	1.2617727006718853	0.0	0.8749597663392458	1.132605095376762	0.0	0.80254397462259	1.0322014428694768	0.0
40	1.3333333333333333	0.8411387366392702	0.9625441041645783	0.0	0.7914967293418229	0.9521771892133074	0.0	0.7705201208974273	0.7351705531228871	0.0	0.7617279899061844	0.5331778669679982	0.0	0.8050739895203178	0.46919007668431295	0.0	0.7678894144975206	0.46378212149612685	0.0	0.7498101326939245	0.5033314997967512	0.0	0.891239306934016	0.9600682618392237	0.0	0.9108868246634667	0.7530410520970816	0.0	0.9250451919998306	0.5715435354579308	0.0	1.0298933843932374	0.5349755664821131	0.0	1.021583642381315	0.5442826794532186	0.0	0.9084258796123854	0.5322354213306881	0.0	0.8117207710813005	1.2967683575727473	0.0	0.8705711157363502	1.4325699352610184	0.0	0.8978224738976425	1.3402115702803814	0.0	0.7181297587921647	1.2554533785388406	0.0	0.6784695122074421	1.0997548303401674	0.0	0.7200202289494884	0.9831917565863967	0.0	0.8694444360281723	1.2620220013736034	0.0	0.8750295848038331	1.1327555371942166	0.0	0.8054578330250823	1.0332172015862393	0.0
41	1.3666666666666667	0.8424869684057504	0.9613747117727722	0.0	0.7920380486869302	0.9507877937931546	0.0	0.7720433537721211	0.7339695944906828	0.0	0.7627588498828479	0.5327096512717038	0.0	0.8057188548396939	0.4687391176838778	0.0	0.7685809730577045	0.4639181271265485	0.0	0.7505744484699285	0.5028314480053584	0.0	0.8933439955664697	0.957864339348742	0.0	0.9125000024787353	0.7515569217536444	0.0	0.9258449114946279	0.571983236409188	0.0	1.0305777152804887	0.5352194813400134	0.0	1.0226245920893737	0.5438076198153178	0.0	0.9097923120474755	0.532754341836432	0.0	0.812693662032345	1.2976049993480572	0.0	0.8710335637504224	1.431519841603959	0.0	0.9002250368294787	1.340907729306422	0.0	0.7183118803911818	1.2542955170214045	0.0	0.6802693000031834	1.0976970107870003	0.0	0.721579042518745	0.9819386733158219	0.0	0.8713828830808183	1.2615927482855118	0.0	0.8762885281087478	1.1313795033912346	0.0	0.8041213163499348	1.0302577443045213	0.0
42	1.4	0.8436872918772987	0.9599616460051472	0.0	0.7923486540837781	0.9492179079812534	0.0	0.7738829207666149	0.7332853056270978	0.0	0.7636501870248843	0.531505849068783	0.0	0.8078352206050046	0.4678934306927285	0.0	0.7699773586981423	0.46338800934620533	0.0	0.7512466074478681	0.50152010117902	0.0	0.8950872511574962	0.9561274302685037	0.0	0.9139148323331229	0.7501745792121296	0.0	0.9264726385653133	0.5725534809674834	0.0	1.031446424503547	0.5342128524897393	0.0	1.023189073761244	0.5431023739874102	0.0	0.9109068133963742	0.5336951234192925	0.0	0.8141631842376252	1.2978688749276757	0.0	0.872307096760195	1.4308832093409853	0.0	0.902880175480832	1.3412562979388856	0.0	0.719141095170383	1.2540051844788827	0.0	0.6819893110983906	1.0960039475992525	0.0	0.7231832769835065	0.98056446453709	0.0	0.8735226569994092	1.2603794645422646	0.0	0.8770962798515413	1.1289180736431943	0.0	0.8016705743872306	1.0267319336104423	0.0
43	1.4333333333333333	0.8446735810178049	0.9595615006302399	0.0	0.7931937074259581	0.9486908624703847	0.0	0.7750607633286015	0.7331452797177573	0.0	0.7639944320235781	0.5307409264448874	0.0	0.8099866588147011	0.4665022456258088	0.0	0.7704545271597889	0.46178741143679713	0.0	0.752098759417179	0.5005137582617383	0.0	0.8955932898428115	0.9556852318478781	0.0	0.9147051331541074	0.7499265873502358	0.0	0.9270180342722137	0.5720663131962184	0.0	1.033275804666231	0.531685345729174	0.0	1.0244434670762987	0.5413831750743678	0.0	0.9109097058473237	0.5335156265518758	0.0	0.8160546331159915	1.2969248522926606	0.0	0.8741624826844568	1.4309538247618026	0.0	0.9048824523644388	1.3410021801004592	0.0	0.7217212572909556	1.2550289519804592	0.0	0.6833741360651411	1.09736539298312	0.0	0.7236604775114391	0.9807283456513013	0.0	0.8749758479470641	1.2587951647666358	0.0	0.8760140050576773	1.126223053231351	0.0	0.8025947120073703	1.02571819668919	0.0
44	1.4666666666666666	0.845309592487368	0.9593514213198372	0.0	0.7946602733517082	0.9475816551773732	0.0	0.7757814206945154	0.732451448258921	0.0	0.7645378062810169	0.5301158200961449	0.0	0.8112511030822821	0.46494266625967295	0.0	0.770972561080208	0.4602091187429157	0.0	0.7534916017803246	0.4993691560812203	0.0	0.8957190631781778	0.9548893399517662	0.0	0.9152011720302982	0.7493811465097594	0.0	0.927499518629953	0.5710805895746148	0.0	1.0346353147665255	0.5297912589070723	0.0	1.0258927745382054	0.5399326785035973	0.0	0.910937341061484	0.5321015983956471	0.0	0.8178051599333803	1.29572339322478	0.0	0.8757829176273823	1.4303076136339992	0.0	0.9061285581557825	1.3397711314944385	0.0	0.7250471301188025	1.2555248304663593	0.0	0.6848237781420019	1.099467035811624	0.0	0.7240339669415367	0.9807585896342395	0.0	0.876186220487109	1.2574706739724248	0.0	0.8757146752197622	1.1248854594326716	0.0	0.8057822957465705	1.025944184052504	0.0
45	1.5	0.8458617760397484	0.9580733830210512	0.0	0.7963058493994613	0.9446631144750512	0.0	0.776961497141183	0.7303946360176586	0.0	0.7659225655027465	0.5288279060826964	0.0	0.8120080339150304	0.464093912628214	0.0	0.7730684211553884	0.45958203230476	0.0	0.7550318080191945	0.49791985282577983	0.0	0.8968932462432218	0.9525263172972295	0.0	0.9161153217381302	0.7466327083399675	0.0	0.9282748572644064	0.5701485009893059	0.0	1.0344927066100882	0.5298331667231116	0.0	1.026557586451789	0.5396390656339907	0.0	0.9123352451720812	0.5303903886670771	0.0	0.8190744197801872	1.2953061239054073	0.0	0.8765259406193326	1.4280919672347718	0.0	0.9071469947490395	1.3375610097451012	0.0	0.727221733230963	1.2535234086082656	0.0	0.686595428279081	1.0985266666507059	0.0	0.7254853775481819	0.9785947477774496	0.0	0.8775557366624672	1.2563360428790449	0.0	0.8781276459911568	1.1246334478839344	0.0	0.8078816636818776	1.0243994904981994	0.0
46	1.5333333333333332	0.8467253546310498	0.9563630240656511	0.0	0.7978541859214575	0.942522682763733	0.0	0.7784865115215399	0.7280237649575346	0.0	0.7676562083426446	0.5273312897893784	0.0	0.812703943031498	0.46418996320644035	0.0	0.7752289349472957	0.45918022271177883	0.0	0.7562003359969458	0.49716532334059094	0.0	0.8987496244196379	0.9504452084422891	0.0	0.917589361042429	0.743235425850022	0.0	0.929900390197409	0.568951672545336	0.0	1.034562350123445	0.5303183570440596	0.0	1.027122925594093	0.5392664038081239	0.0	0.9143070077265634	0.5294343984566731	0.0	0.8205874376348631	1.2953118952708609	0.0	0.8770258064345507	1.425854258686929	0.0	0.9084586144663795	1.3366483781615874	0.0	0.7277288588232365	1.250299384092026	0.0	0.6882923900163086	1.0954796878190343	0.0	0.7274320685490462	0.9759378131078423	0.0	0.8785513244013685	1.2549899427246025	0.0	0.8800272865911558	1.1235759242261814	0.0	0.807544262715601	1.0209638096066098	0.0
47	1.5666666666666667	0.8479536371940743	0.9556180364534599	0.0	0.7992900671566278	0.9434048550667815	0.0	0.7795689718912782	0.7271124561314565	0.0	0.769032056762225	0.5268748880587371	0.0	0.8133333958143157	0.46457577781883136	0.0	0.7756383374230105	0.4583374797552071	0.0	0.7572357385999362	0.49739888671038546	0.0	0.8998193539984073	0.9505830025607549	0.0	0.9191175811808255	0.742314081309105	0.0	0.9323773407550049	0.5676177119046685	0.0	1.036223475706026	0.5294023241188189	0.0	1.02874847188787	0.5379048174866422	0.0	0.9155147295789396	0.5294094582553969	0.0	0.8230019492819137	1.295002757090332	0.0	0.8784427156696346	1.4253873568310877	0.0	0.9102917932425846	1.3384858565377384	0.0	0.7279627645830263	1.2487050475662151	0.0	0.6894048072800989	1.0937373871136125	0.0	0.7289295596622505	0.9749171148571212	0.0	0.8788677804397528	1.2537514561777263	0.0	0.8785193686639167	1.1218050885516317	0.0	0.8060825552813967	1.0181375644624833	0.0
